<?xml version="1.0" encoding="utf-8"?>
<!-- Generator: Adobe Illustrator 27.8.0, SVG Export Plug-In . SVG Version: 6.00 Build 0)  -->
<svg version="1.1" id="Layer_1" xmlns="http://www.w3.org/2000/svg" xmlns:xlink="http://www.w3.org/1999/xlink" x="0px" y="0px"
	 viewBox="0 0 244 244" style="enable-background:new 0 0 244 244;" xml:space="preserve">
<style type="text/css">
	.st0{fill:#EA0A1E;}
</style>
<g id="LOGOS">
	<path class="st0" d="M168.4,173.8l2.8-7.4l2.8,7.4H168.4z M174.2,162.1h-5.9l-8.2,20.2h5.1l1.9-4.9h8.4l1.9,4.9h5.1L174.2,162.1
		L174.2,162.1z M132.6,178.8c-3.3,0-6-3-6-6.7s2.7-6.7,6-6.7s6,3,6,6.7S135.9,178.8,132.6,178.8 M132.6,161.4
		c-5.9,0-10.7,4.8-10.7,10.7s4.8,10.7,10.7,10.7c5.9,0,10.7-4.8,10.7-10.7S138.4,161.4,132.6,161.4 M90.5,178.8c-3.3,0-6-3-6-6.7
		s2.7-6.7,6-6.7s6,3,6,6.7S93.8,178.8,90.5,178.8 M90.5,161.4c-5.9,0-10.7,4.8-10.7,10.7s4.8,10.7,10.7,10.7s10.7-4.8,10.7-10.7
		S96.4,161.4,90.5,161.4 M116.8,162.1l-5.2,8.2l-5.2-8.2h-5.1l8.1,12.7v7.5h4.5v-7.5l8.1-12.7L116.8,162.1L116.8,162.1z
		 M161.1,162.1h-17.3v3.9h6.4v16.3h4.5V166h6.4V162.1z M61.6,166H68v16.3h4.5V166h6.4v-3.9H61.6C61.6,162.1,61.6,166,61.6,166z"/>
	<path class="st0" d="M114.5,102.3c0-0.3,0-0.6,0-0.9c-8.7-1.3-15-4.9-15-9c0-0.2,0-0.4,0-0.6c-2.2,2.7-3.5,5.8-3.5,9.1
		c0,9.5,10.4,17.2,23.6,18C116.6,116.7,114.5,110.1,114.5,102.3L114.5,102.3z"/>
	<path class="st0" d="M121.9,89.5c-2,0-3.7,3.1-4.3,7.4c1.4,0.1,2.8,0.2,4.3,0.2s2.9-0.1,4.3-0.2C125.6,92.6,123.9,89.5,121.9,89.5z
		"/>
	<path class="st0" d="M121.9,101.9c-1.6,0-3.2-0.1-4.7-0.2c0.1,6.2,2.2,11.1,4.7,11.1c2.5,0,4.5-4.9,4.7-11.1
		C125,101.9,123.5,101.9,121.9,101.9z"/>
	<path class="st0" d="M114.9,96.6c1-6.8,3.8-11.7,7-11.7c3.2,0,6,4.9,7,11.7c6.2-1,10.5-3.1,10.5-5.7c0-3.4-7.8-6.2-17.4-6.2
		c-9.6,0-17.4,2.8-17.4,6.2C104.5,93.4,108.8,95.6,114.9,96.6L114.9,96.6z"/>
	<path class="st0" d="M144.3,92.4c0,4.2-6.3,7.7-15,9c0,0.3,0,0.6,0,0.9c0,7.8-2.2,14.3-5.1,16.6c13.2-0.8,23.6-8.6,23.6-18
		c0-3.3-1.3-6.4-3.5-9.1C144.3,92,144.3,92.2,144.3,92.4L144.3,92.4z"/>
	<path class="st0" d="M81.5,61.2V142h80.8V61.2C162.3,61.2,81.5,61.2,81.5,61.2z M121.9,121.2c-16.7,0-30.3-8.8-30.3-19.6
		c0-7.7,6.9-14.3,16.8-17.6c3.7-1.2,8.4-1.9,13.5-1.9s9.7,0.7,13.5,1.9c10,3.2,16.8,9.9,16.8,17.6
		C152.2,112.4,138.6,121.2,121.9,121.2L121.9,121.2z"/>
</g>
</svg>
