<?xml version="1.0" encoding="utf-8"?>
<!-- Generator: Adobe Illustrator 27.8.0, SVG Export Plug-In . SVG Version: 6.00 Build 0)  -->
<svg version="1.1" id="Layer_1" xmlns="http://www.w3.org/2000/svg" xmlns:xlink="http://www.w3.org/1999/xlink" x="0px" y="0px"
	 viewBox="0 0 244 244" style="enable-background:new 0 0 244 244;" xml:space="preserve">
<style type="text/css">
	.st0{fill-rule:evenodd;clip-rule:evenodd;fill:#0082CC;}
</style>
<path class="st0" d="M178.2,121.4h-3.1c-0.5,0-0.9-0.2-1.1-0.7l-3.1-6.3v6.2c0,0.4-0.3,0.8-0.8,0.8c0,0,0,0,0,0h-2.2
	c-0.4,0-0.8-0.4-0.8-0.8c0,0,0,0,0,0v-19.2c0-0.4,0.3-0.8,0.8-0.8c0,0,0,0,0,0h2.2c0.4,0,0.8,0.3,0.8,0.8c0,0,0,0,0,0v11.2l2.9-4.8
	c0.3-0.4,0.6-0.7,1.1-0.7h2.9c0.5,0,0.6,0.5,0.3,0.9l-3.7,5.2l4.3,7.3C178.9,120.9,178.7,121.4,178.2,121.4 M162.8,121.4h-2.2
	c-0.4,0-0.8-0.3-0.8-0.8c0,0,0,0,0,0v-12.7c0-0.4,0.3-0.8,0.8-0.8c0,0,0,0,0,0h2.2c0.4,0,0.8,0.4,0.8,0.8v12.7
	C163.6,121,163.2,121.4,162.8,121.4 M161.6,104.9c-1.3,0-2.2-1-2.2-2.3s0.9-2.3,2.2-2.3s2.2,1,2.2,2.3S162.9,104.9,161.6,104.9
	 M155.4,121.4h-2.2c-0.4,0-0.8-0.3-0.8-0.8c0,0,0,0,0,0v-9.2c0-0.7-0.3-1.2-1.2-1.2c-1.3,0-2.2,1.2-2.2,2.9v7.6
	c0,0.4-0.3,0.8-0.8,0.8H146c-0.4,0-0.8-0.3-0.8-0.8c0,0,0,0,0,0v-12.7c0-0.4,0.3-0.8,0.8-0.8c0,0,0,0,0,0h1.7c0.5,0,0.7,0.3,0.8,0.7
	l0.2,0.9c1.1-1.2,2.3-1.8,3.8-1.8c2.2,0,3.6,1.5,3.6,3.7v10C156.2,121,155.8,121.4,155.4,121.4 M141.2,121.4H139
	c-0.4,0-0.8-0.3-0.8-0.8c0,0,0,0,0,0v-9.2c0-0.7-0.3-1.2-1.2-1.2c-1.3,0-2.2,1.1-2.2,2.9v7.6c0,0.4-0.3,0.8-0.8,0.8h-2.2
	c-0.4,0-0.8-0.4-0.8-0.8c0,0,0,0,0,0v-19.2c0-0.4,0.3-0.8,0.8-0.8c0,0,0,0,0,0h2.2c0.4,0,0.8,0.4,0.8,0.8v7.1c0.8-0.9,2-1.6,3.6-1.6
	c2.2,0,3.6,1.5,3.6,3.7v10C142,121,141.6,121.4,141.2,121.4C141.2,121.4,141.2,121.4,141.2,121.4 M128.3,121.1
	c-0.9,0.3-2,0.5-3.1,0.5c-3.8,0-6.2-2.3-6.2-7.5c0-4,2.2-7.1,6.5-7.1c0.9,0,1.8,0.2,2.6,0.5c0.5,0.2,0.6,0.6,0.5,0.9l-0.5,1.7
	c-0.1,0.3-0.4,0.6-0.9,0.5c-0.4-0.1-0.8-0.3-1.4-0.3c-1.9,0-2.9,1.2-2.9,3.9c0,2.9,0.8,4.2,3,4.2c0.5,0,1.3-0.1,1.8-0.2
	c0.5-0.1,0.7,0.1,0.8,0.5l0.3,1.7C128.9,120.6,128.8,120.9,128.3,121.1 M111.5,109.9c-1.4,0-1.7,1.4-1.8,2.9h3.6
	C113.2,111.3,112.9,109.9,111.5,109.9 M116.3,115.2h-6.6c0.1,1.9,0.6,3.1,2.9,3.1c1.1,0,2-0.3,2.7-0.6c0.5-0.2,0.7,0.1,0.8,0.5
	l0.6,1.7c0.1,0.4-0.1,0.7-0.5,0.9c-1.3,0.6-2.5,0.8-4.4,0.8c-3.8,0-6.2-2.4-6.2-7.4c0-4.2,2.1-7.3,5.7-7.3c3.8,0,5.6,2.7,5.6,7.5
	C117.1,114.9,116.7,115.2,116.3,115.2C116.3,115.2,116.3,115.2,116.3,115.2 M105.6,105.1h-3.8v15.5c0,0.4-0.4,0.8-0.8,0.8h-2.3
	c-0.4,0-0.8-0.4-0.8-0.8v-15.5h-3.8c-0.4,0-0.8-0.4-0.8-0.8v-1.9c0-0.4,0.4-0.8,0.8-0.8h11.5c0.4,0,0.8,0.4,0.8,0.8v1.9
	C106.4,104.7,106.1,105.1,105.6,105.1 M180.8,144.1h-2.2c-0.4,0-0.8-0.3-0.8-0.8c0,0,0,0,0,0V134c0-0.9-0.6-1.2-1.1-1.2
	c-1.3,0-2.1,1.1-2.1,2.9v7.6c0,0.4-0.3,0.8-0.8,0.8c0,0,0,0,0,0h-2.2c-0.4,0-0.8-0.3-0.8-0.8c0,0,0,0,0,0V134c0-0.9-0.6-1.2-1-1.2
	c-1.3,0-2.1,1.1-2.1,2.9v7.6c0,0.4-0.3,0.8-0.8,0.8h-2.2c-0.4,0-0.8-0.3-0.8-0.8c0,0,0,0,0,0v-12.7c0-0.4,0.3-0.8,0.8-0.8h1.7
	c0.5,0,0.7,0.3,0.8,0.7l0.2,0.9c0.9-1.1,2.4-1.8,3.7-1.8c1.5,0,2.7,0.7,3.2,1.9c0.9-1.1,2.4-1.9,3.8-1.9c2.1,0,3.5,1.4,3.5,4v9.7
	C181.5,143.7,181.2,144.1,180.8,144.1C180.8,144.1,180.8,144.1,180.8,144.1 M159.9,144.1h-1.7c-0.5,0-0.7-0.3-0.8-0.7l-0.2-0.9
	c-1.1,1.2-2.5,1.8-4,1.8c-2.2,0-3.7-1.5-3.7-3.7v-10c0-0.4,0.3-0.8,0.8-0.8c0,0,0,0,0,0h2.2c0.4,0,0.8,0.3,0.8,0.8c0,0,0,0,0,0v9.3
	c0,0.7,0.4,1.2,1.3,1.2c1.3,0,2.3-1.2,2.3-2.9v-7.6c0-0.4,0.3-0.8,0.8-0.8c0,0,0,0,0,0h2.2c0.4,0,0.8,0.4,0.8,0.8c0,0,0,0,0,0v12.7
	C160.7,143.7,160.4,144.1,159.9,144.1C159.9,144.1,159.9,144.1,159.9,144.1 M141.4,132.6c-1.4,0-1.7,1.4-1.8,2.9h3.6
	C143.1,133.9,142.8,132.6,141.4,132.6 M146.2,137.9h-6.6c0.1,1.9,0.6,3.1,2.9,3.1c1.1,0,2-0.3,2.7-0.6c0.5-0.2,0.7,0.1,0.8,0.5
	l0.6,1.7c0.1,0.4-0.1,0.7-0.5,0.9c-1.3,0.6-2.5,0.8-4.4,0.8c-3.8,0-6.2-2.4-6.2-7.4c0-4.2,2.1-7.3,5.7-7.3c3.8,0,5.6,2.7,5.6,7.5
	C147,137.5,146.6,137.9,146.2,137.9C146.2,137.9,146.2,137.9,146.2,137.9 M128.8,144.3c-1.5,0-3.1-0.4-4.3-0.9
	c-0.4-0.2-0.6-0.5-0.5-0.9l0.5-1.6c0.1-0.4,0.5-0.7,0.9-0.6c1.1,0.4,2.1,0.8,3.2,0.8c0.9,0,1.3-0.4,1.3-1c0-1.1-1.3-1.7-2.7-2.4
	c-1.4-0.8-2.9-1.9-2.9-3.8c0-2.4,1.6-4.2,4.6-4.2c1.5,0,2.2,0.1,3.5,0.6c0.4,0.2,0.7,0.5,0.6,0.9l-0.5,1.3c-0.2,0.4-0.5,0.7-0.9,0.6
	c-0.6-0.2-1.4-0.6-2.4-0.6c-0.8,0-1.2,0.5-1.2,1.1c0,0.8,1.1,1.3,2.4,2c1.5,0.8,3.2,2,3.2,4.2C133.7,141.9,132.4,144.3,128.8,144.3
	 M121,144.1h-1.7c-0.5,0-0.7-0.3-0.8-0.7l-0.2-0.9c-1.1,1.2-2.5,1.8-4,1.8c-2.2,0-3.7-1.5-3.7-3.7v-10c0-0.4,0.3-0.8,0.8-0.8
	c0,0,0,0,0,0h2.2c0.4,0,0.8,0.3,0.8,0.8c0,0,0,0,0,0v9.3c0,0.7,0.4,1.2,1.3,1.2c1.3,0,2.3-1.2,2.3-2.9v-7.6c0-0.4,0.3-0.8,0.8-0.8
	c0,0,0,0,0,0h2.2c0.4,0,0.8,0.3,0.8,0.8c0,0,0,0,0,0v12.7C121.7,143.7,121.4,144.1,121,144.1C121,144.1,121,144.1,121,144.1
	 M106.6,144.1h-2.2c-0.4,0-0.8-0.3-0.8-0.8c0,0,0,0,0,0V134c0-0.9-0.6-1.2-1.1-1.2c-1.3,0-2.1,1.1-2.1,2.9v7.6
	c0,0.4-0.3,0.8-0.8,0.8c0,0,0,0,0,0h-2.2c-0.4,0-0.8-0.3-0.8-0.8c0,0,0,0,0,0V134c0-0.9-0.6-1.2-1-1.2c-1.3,0-2.1,1.1-2.1,2.9v7.6
	c0,0.4-0.3,0.8-0.8,0.8h-2.2c-0.4,0-0.8-0.3-0.8-0.8c0,0,0,0,0,0v-12.7c0-0.4,0.3-0.8,0.8-0.8c0,0,0,0,0,0h1.7
	c0.5,0,0.7,0.3,0.8,0.7l0.2,0.9c0.9-1.1,2.4-1.8,3.7-1.8c1.5,0,2.7,0.7,3.2,1.9c0.9-1.1,2.4-1.9,3.8-1.9c2.1,0,3.5,1.4,3.5,4v9.7
	C107.4,143.7,107.1,144.1,106.6,144.1 M147,95.1c-0.8,0-1.7-0.2-2.3-0.5c-0.2-0.1-0.3-0.3-0.3-0.5l0.3-0.9c0.1-0.2,0.3-0.4,0.5-0.3
	c0.6,0.2,1.1,0.4,1.7,0.4c0.5,0,0.7-0.2,0.7-0.5c0-0.6-0.7-0.9-1.5-1.3c-0.8-0.4-1.5-1-1.5-2.1c0-1.3,0.9-2.3,2.5-2.3
	c0.8,0,1.2,0.1,1.9,0.3c0.2,0.1,0.4,0.3,0.3,0.5l-0.3,0.7c-0.1,0.2-0.3,0.4-0.5,0.3c-0.3-0.1-0.8-0.3-1.3-0.3
	c-0.4,0-0.6,0.3-0.6,0.6c0,0.4,0.6,0.7,1.3,1.1c0.8,0.4,1.7,1.1,1.7,2.3C149.7,93.8,149,95.1,147,95.1 M140.4,88.8
	c-0.7,0-0.9,0.8-1,1.6h1.9C141.3,89.5,141.2,88.8,140.4,88.8 M143,91.7h-3.6c0.1,1,0.3,1.7,1.6,1.7c0.6,0,1.1-0.1,1.5-0.3
	c0.3-0.1,0.4,0,0.4,0.3l0.3,0.9c0.1,0.2-0.1,0.4-0.3,0.5c-0.7,0.3-1.4,0.4-2.4,0.4c-2,0-3.3-1.3-3.3-4c0-2.3,1.2-3.9,3.1-3.9
	c2.1,0,3,1.5,3,4.1C143.4,91.5,143.2,91.7,143,91.7 M135.6,95h-1.2c-0.2,0-0.4-0.2-0.4-0.4c0,0,0,0,0,0v-5c0-0.4-0.2-0.7-0.6-0.7
	c-0.7,0-1.2,0.6-1.2,1.6v4.1c0,0.2-0.2,0.4-0.4,0.4c0,0,0,0,0,0h-1.2c-0.2,0-0.4-0.2-0.4-0.4l0,0V84.2c0-0.2,0.2-0.4,0.4-0.4h1.2
	c0.2,0,0.4,0.2,0.4,0.4V88c0.4-0.5,1.1-0.9,1.9-0.9c1.2,0,1.9,0.8,1.9,2v5.4C136,94.8,135.8,95,135.6,95C135.6,95,135.6,95,135.6,95
	 M128.6,94.8c-0.5,0.2-1.1,0.3-1.7,0.3c-2.1,0-3.4-1.2-3.4-4.1c0-2.2,1.2-3.9,3.5-3.9c0.5,0,1,0.1,1.4,0.3c0.3,0.1,0.3,0.3,0.3,0.5
	l-0.3,0.9c-0.1,0.2-0.2,0.3-0.5,0.3c-0.2-0.1-0.4-0.1-0.8-0.1c-1,0-1.6,0.6-1.6,2.1c0,1.6,0.4,2.2,1.6,2.2c0.3,0,0.7,0,1-0.1
	c0.3-0.1,0.4,0.1,0.4,0.3l0.2,0.9C128.9,94.6,128.9,94.7,128.6,94.8 M120,95.1c-0.8,0-1.7-0.2-2.3-0.5c-0.2-0.1-0.3-0.3-0.3-0.5
	l0.3-0.9c0.1-0.2,0.3-0.4,0.5-0.3c0.6,0.2,1.2,0.4,1.7,0.4c0.5,0,0.7-0.2,0.7-0.5c0-0.6-0.7-0.9-1.5-1.3c-0.8-0.4-1.5-1-1.5-2.1
	c0-1.3,0.8-2.3,2.5-2.3c0.8,0,1.2,0.1,1.9,0.3c0.2,0.1,0.4,0.3,0.3,0.5l-0.3,0.7c-0.1,0.2-0.3,0.4-0.5,0.3c-0.3-0.1-0.8-0.3-1.3-0.3
	c-0.4,0-0.6,0.3-0.6,0.6c0,0.4,0.6,0.7,1.3,1.1c0.8,0.4,1.7,1.1,1.7,2.3C122.7,93.8,122,95.1,120,95.1 M116.7,94.9
	c-0.4,0.1-1,0.2-1.5,0.2c-1.3,0-1.8-0.8-1.8-2v-4.3h-0.8c-0.2,0-0.4-0.2-0.4-0.4c0,0,0,0,0,0v-0.7c0-0.2,0.2-0.4,0.4-0.4h0.8v-1.6
	c0-0.3,0.1-0.6,0.4-0.6l1.2-0.3c0.4-0.1,0.5,0.1,0.5,0.5v2h1c0.2,0,0.4,0.2,0.4,0.4v0.7c0,0.2-0.2,0.4-0.4,0.4c0,0,0,0,0,0h-1v3.8
	c0,0.4,0.2,0.6,0.5,0.6c0.1,0,0.3,0,0.5,0c0.3-0.1,0.4,0,0.5,0.3l0.2,1C117,94.7,116.9,94.8,116.7,94.9 M110.9,95H110
	c-0.3,0-0.4-0.2-0.4-0.4l-0.1-0.5c-0.6,0.6-1.3,1-2.2,1c-1.2,0-2-0.8-2-2v-5.4c0-0.2,0.2-0.4,0.4-0.4h1.2c0.2,0,0.4,0.2,0.4,0.4v5
	c0,0.4,0.2,0.7,0.7,0.7c0.7,0,1.2-0.6,1.2-1.6v-4.1c0-0.2,0.2-0.4,0.4-0.4h1.2c0.2,0,0.4,0.2,0.4,0.4v6.9
	C111.3,94.8,111.1,95,110.9,95C110.9,95,110.9,95,110.9,95 M100.9,88.8c-0.7,0-0.9,0.8-1,1.6h1.9C101.8,89.5,101.6,88.8,100.9,88.8
	 M103.4,91.7h-3.6c0.1,1,0.3,1.7,1.6,1.7c0.6,0,1.1-0.1,1.5-0.3c0.3-0.1,0.4,0,0.4,0.3l0.3,0.9c0.1,0.2-0.1,0.4-0.3,0.5
	c-0.7,0.3-1.4,0.4-2.4,0.4c-2,0-3.3-1.3-3.3-4c0-2.3,1.2-3.9,3.1-3.9c2.1,0,3,1.5,3,4.1C103.9,91.5,103.7,91.7,103.4,91.7 M92.7,86
	h-0.8v7.2h0.7c1.5,0,2.1-0.9,2.1-3.6C94.7,87.2,94.2,86,92.7,86 M93.2,95h-2.9c-0.2,0-0.4-0.2-0.4-0.4v-9.8c0-0.2,0.2-0.4,0.4-0.4
	h2.8c1.5,0,3.8,0.6,3.8,5.4C96.9,92.8,96.2,95,93.2,95 M82.1,174.3c-2.2-1.5-4.2-3.4-3.5-9c0.4-3.3,1.9-5.4,3.4-7.3
	c1.7-2.3,3.3-4.5,2.7-8.3c-0.3-2.4-2.1-4.6-3.9-6.9c-2.5-3.1-5.2-6.4-4.6-10.7c0.9-6.6,2-7.9,4.8-11.2l0.6-0.7
	c1.5-1.8,6.3-8.3,4-14.8c-0.3-1-1-2.1-1.8-3.4c-2-3.4-4.7-8-3.6-13.2c1.8-8.3,3.8-10.5,5.9-13c0.8-0.9,1.6-1.8,2.4-3.1
	c2.3-3.5,1.9-6.1,1.1-7.7c-1.1-2.2-3.7-3.8-6.7-4c-2.7-0.2-5.1,0.7-6.6,2.5c-1.2,1.3-2.4,3.8-1.6,8l0.1,0.3
	c1.1,5.6,2.2,11.4-0.5,18.4c-1.8,4.6-4.4,7.5-6.8,10c-3.4,3.7-6.3,6.8-4.6,13.8c0.9,3.8,3.3,5.4,5.4,6.8c1.8,1.2,3.5,2.3,4.2,4.9
	c1.4,5.3,0.4,11-2.8,15.3c-3.1,4-6.3,9.3-3.9,15.2c1.1,2.8,3.6,4.2,5.9,5.5c2.4,1.4,4.4,2.6,4.6,5c0.2,3.7-0.9,5.5-1.8,7
	c-0.7,1.2-1.3,2.3-1.1,3.8c0.4,1.9,2.8,5.1,5.2,5.2c0.6,0,1.3-0.1,1.8-0.5c1.8-1.2,2.8-3.6,2.8-5.3
	C83.3,175.7,82.9,174.8,82.1,174.3 M83.2,110.4c-0.3,4.9-4.6,8.6-9.4,8.2c-4.8-0.3-8.5-4.6-8.2-9.4c0.3-4.9,4.6-8.6,9.4-8.2
	C79.9,101.3,83.6,105.6,83.2,110.4 M82.5,63.5c2.9,0.2,5,2.7,4.8,5.6c-0.2,2.9-2.7,5.1-5.6,4.9c-2.9-0.2-5-2.7-4.8-5.6
	C77.2,65.5,79.7,63.3,82.5,63.5 M81.4,150.8c-0.3,3.8-3.6,6.7-7.4,6.5c-3.8-0.3-6.7-3.6-6.4-7.4c0.3-3.8,3.6-6.7,7.4-6.5
	C78.8,143.6,81.7,147,81.4,150.8"/>
</svg>
