<?xml version="1.0" encoding="utf-8"?>
<!-- Generator: Adobe Illustrator 27.8.0, SVG Export Plug-In . SVG Version: 6.00 Build 0)  -->
<svg version="1.1" id="Layer_1" xmlns="http://www.w3.org/2000/svg" xmlns:xlink="http://www.w3.org/1999/xlink" x="0px" y="0px"
	 viewBox="0 0 244 244" style="enable-background:new 0 0 244 244;" xml:space="preserve">
<style type="text/css">
	.st0{fill-rule:evenodd;clip-rule:evenodd;fill:#FFFFFF;}
</style>
<g id="Styles">
	<g id="Website-Styleguides-Copy" transform="translate(-82.000000, -11647.000000)">
		<g id="Group-38" transform="translate(0.000000, 11545.000000)">
			<g id="Group-9">
				<g id="Group-Copy-3" transform="translate(82.000000, 102.000000)">
					<g id="Group-10-Copy-14" transform="translate(162.437878, 0.000000)">
						<path id="Combined-Shape-Copy" class="st0" d="M47.2,113.1c8.1,0.1,3.7,12.3,1.4,14.5c-2.3,2.2-13.1,4.7-15.8,1.5
							c-2.8-3.2-5.3-10.9-1.4-14.5C35.3,111.1,39.1,113,47.2,113.1z M41.2,116.1h-2.8c-0.2,0-0.3,0.2-0.3,0.3l0,0v1.2
							c0,0.2,0.1,0.3,0.3,0.3l0,0h1.1c0.1,0,0.1,0.1,0.1,0.1l0,0v8.4c0,0.3,0.2,0.5,0.5,0.5l0,0h1.1c0.3,0,0.5-0.2,0.5-0.5l0,0v-9.9
							C41.7,116.4,41.5,116.1,41.2,116.1L41.2,116.1z"/>
					</g>
					<path id="Fill-16" class="st0" d="M125.7,114.3c0.3,0,0.5,0.2,0.5,0.5v9.1c0,1.2,0.4,1.9,0.7,2.3c0.4,0.5,1.2,1.1,2.4,1.1
						s2-0.5,2.4-1.1c0.3-0.4,0.7-1.1,0.7-2.3v-9.1c0-0.3,0.2-0.5,0.5-0.5h1.9c0.3,0,0.5,0.2,0.5,0.5v8.8c0,1.4-0.2,2.9-1.1,4.1
						c-1.1,1.4-3,2.2-4.9,2.2c-1.9,0-3.8-0.8-4.9-2.2c-0.9-1.2-1.1-2.6-1.1-4.1v-8.8c0-0.3,0.2-0.5,0.5-0.5H125.7z"/>
					<path id="Fill-18" class="st0" d="M146.3,117.5c-0.2,0.2-0.5,0.3-0.8,0.1c-0.8-0.8-1.7-0.9-2.2-0.9c-1.6,0-2.2,1-2.2,1.7
						c0,0.4,0.1,0.7,0.5,1c0.4,0.3,0.9,0.5,1.9,0.8c1.2,0.4,2.4,0.8,3.2,1.5c0.7,0.6,1.3,1.6,1.3,3.1c0,2.9-2.2,4.9-5.4,4.9
						c-2.6,0-4.2-1.4-5.1-2.5c-0.2-0.2-0.1-0.5,0.1-0.7l1.2-1.1c0.2-0.2,0.6-0.2,0.8,0.1c0.8,1.1,2,1.5,3,1.5c1.4,0,2.4-0.8,2.4-2.1
						c0-0.5-0.2-1-0.6-1.3c-0.6-0.5-1.5-0.8-2.4-1.1c-0.8-0.3-1.8-0.6-2.6-1.3c-0.5-0.4-1.2-1.3-1.2-2.8c0-2.2,1.5-4.4,5-4.4
						c0.9,0,2.6,0.2,4.1,1.4c0.2,0.2,0.2,0.5,0.1,0.7L146.3,117.5z"/>
					<path id="Fill-20" class="st0" d="M153,114.8v14.6c0,0.3-0.2,0.5-0.5,0.5h-1.9c-0.3,0-0.5-0.2-0.5-0.5v-14.6
						c0-0.3,0.2-0.5,0.5-0.5h1.9C152.8,114.3,153,114.5,153,114.8"/>
					<path id="Fill-22" class="st0" d="M156.6,129.3v-14.6c0-0.3,0.2-0.5,0.5-0.5h1.3c0.1,0,0.3,0.1,0.4,0.2l8.2,9.2
						c0.3,0.4,0.9,0.1,0.9-0.4v-8.5c0-0.3,0.2-0.5,0.5-0.5h1.9c0.3,0,0.5,0.2,0.5,0.5v14.6c0,0.3-0.2,0.5-0.5,0.5h-1.3
						c-0.1,0-0.3-0.1-0.4-0.2l-8.2-9.3c-0.3-0.4-0.9-0.1-0.9,0.4v8.6c0,0.3-0.2,0.5-0.5,0.5h-1.9
						C156.8,129.9,156.6,129.6,156.6,129.3"/>
					<path id="Fill-24" class="st0" d="M181.4,122c0-0.3,0.2-0.5,0.5-0.5h6.5v0.2c0,1-0.1,4.1-2.3,6.2c-1.6,1.5-3.6,2-5.5,2
						c-1.9,0-3.9-0.4-5.6-2c-0.5-0.5-2.3-2.4-2.3-5.7c0-2.9,1.3-4.7,2.3-5.5c1.2-1.1,3.1-2.3,6.1-2.3c1.2,0,2.4,0.2,3.6,0.8
						c0.9,0.4,1.8,1.2,2.6,2.3c0.2,0.2,0.1,0.6-0.2,0.7l-1.7,0.9c-0.2,0.1-0.5,0-0.7-0.2c-0.5-0.7-1.1-1.2-1.6-1.4
						c-0.6-0.3-1.5-0.5-2.2-0.5c-1.2,0-2.6,0.4-3.6,1.3c-0.9,0.8-1.5,2.3-1.5,3.9c0,2,0.9,3.2,1.5,3.8c0.7,0.6,1.8,1.3,3.4,1.3
						c1,0,2.2-0.3,3-0.9c0.5-0.3,0.9-0.9,1.2-1.6c0.1-0.3-0.1-0.7-0.5-0.7h-2.7c-0.3,0-0.5-0.2-0.5-0.5V122z"/>
					<g id="Group-Copy" transform="translate(0.000000, 1.722112)">
						<path id="Fill-4" class="st0" d="M36,128.1h-1.5c-0.2,0-0.4-0.1-0.5-0.3l-5-14.4c-0.1-0.3,0.1-0.7,0.5-0.7h2.1
							c0.2,0,0.4,0.1,0.5,0.4l2.8,8.7c0.2,0.5,0.8,0.5,1,0l3.1-8.9c0.1-0.2,0.3-0.3,0.5-0.3h0.9c0.2,0,0.4,0.1,0.5,0.4l3,8.9
							c0.2,0.5,0.8,0.5,1,0l3.1-8.8c0.1-0.2,0.3-0.3,0.5-0.3h2.1c0.4,0,0.6,0.4,0.5,0.7l-5.3,14.4c-0.1,0.2-0.3,0.3-0.5,0.3h-1.5
							c-0.2,0-0.4-0.1-0.5-0.3l-2.8-8.1c-0.2-0.5-0.8-0.5-1,0l-2.9,8.1C36.4,128,36.2,128.1,36,128.1"/>
						<path id="Fill-6" class="st0" d="M59.7,121.7l-1.4-3.7c-0.2-0.4-0.8-0.4-1,0l-1.4,3.7c-0.1,0.3,0.1,0.7,0.5,0.7h2.9
							C59.5,122.4,59.8,122,59.7,121.7 M60.5,124.9H55c-0.2,0-0.4,0.1-0.5,0.3l-1.1,2.6c-0.1,0.2-0.3,0.3-0.5,0.3h-2.1
							c-0.4,0-0.6-0.4-0.5-0.7l6.2-14.6c0.1-0.2,0.3-0.3,0.5-0.3h1.7c0.2,0,0.4,0.1,0.5,0.3l6,14.6c0.1,0.3-0.1,0.7-0.5,0.7h-2.1
							c-0.2,0-0.4-0.1-0.5-0.3l-1.1-2.6C60.9,125,60.7,124.9,60.5,124.9"/>
						<path id="Fill-8" class="st0" d="M69.5,119.7h0.8c0.6,0,2.9-0.1,2.9-2.4c0-2.3-2.3-2.3-2.9-2.3h-0.9V119.7z M71,112.5
							c2.1,0,3.2,0.6,3.9,1.2c1.2,1,1.5,2.3,1.5,3.5c0,1.5-0.6,2.9-1.8,3.7c-0.3,0.2-0.6,0.4-1,0.5c-0.3,0.1-0.5,0.5-0.2,0.8
							l3.7,5.1c0.2,0.3,0,0.8-0.4,0.8h-2.4c-0.2,0-0.3-0.1-0.4-0.2l-3.9-6h-0.4v5.7c0,0.3-0.2,0.5-0.5,0.5h-2
							c-0.3,0-0.5-0.2-0.5-0.5v-14.6c0-0.3,0.2-0.5,0.5-0.5H71z"/>
						<path id="Fill-10" class="st0" d="M87.3,115.2h-4.5c-0.3,0-0.5,0.2-0.5,0.5v2.4c0,0.3,0.2,0.5,0.5,0.5h4.3
							c0.3,0,0.5,0.2,0.5,0.5v1.6c0,0.3-0.2,0.5-0.5,0.5h-4.3c-0.3,0-0.5,0.2-0.5,0.5v3.2c0,0.3,0.2,0.5,0.5,0.5h4.5
							c0.3,0,0.5,0.2,0.5,0.5v1.6c0,0.3-0.2,0.5-0.5,0.5h-7.5c-0.3,0-0.5-0.2-0.5-0.5v-14.6c0-0.3,0.2-0.5,0.5-0.5h7.5
							c0.3,0,0.5,0.2,0.5,0.5v1.6C87.8,114.9,87.6,115.2,87.3,115.2"/>
						<path id="Fill-12" class="st0" d="M94.1,118.6h5.3c0.3,0,0.5-0.2,0.5-0.5v-5c0-0.3,0.2-0.5,0.5-0.5h1.9c0.3,0,0.5,0.2,0.5,0.5
							v14.6c0,0.3-0.2,0.5-0.5,0.5h-1.9c-0.3,0-0.5-0.2-0.5-0.5v-5.9c0-0.3-0.2-0.5-0.5-0.5h-5.3c-0.3,0-0.5,0.2-0.5,0.5v5.9
							c0,0.3-0.2,0.5-0.5,0.5h-1.9c-0.3,0-0.5-0.2-0.5-0.5v-14.6c0-0.3,0.2-0.5,0.5-0.5h1.9c0.3,0,0.5,0.2,0.5,0.5v5
							C93.6,118.3,93.8,118.6,94.1,118.6"/>
						<path id="Fill-14" class="st0" d="M118.1,120.4c0-3-2.1-5.2-5.1-5.2c-3,0-5.1,2.1-5.1,5.2c0,3,2.1,5.1,5.1,5.1
							C116,125.5,118.1,123.4,118.1,120.4 M121.2,120.4c0,4.5-3.3,7.8-8.2,7.8s-8.2-3.2-8.2-7.8c0-4.5,3.3-7.8,8.2-7.8
							S121.2,115.8,121.2,120.4"/>
					</g>
				</g>
			</g>
		</g>
	</g>
</g>
</svg>
