<?xml version="1.0" encoding="utf-8"?>
<!-- Generator: Adobe Illustrator 27.8.0, SVG Export Plug-In . SVG Version: 6.00 Build 0)  -->
<svg version="1.1" id="Ebene_1" xmlns="http://www.w3.org/2000/svg" xmlns:xlink="http://www.w3.org/1999/xlink" x="0px" y="0px"
	 viewBox="0 0 244 244" style="enable-background:new 0 0 244 244;" xml:space="preserve">
<style type="text/css">
	.st0{display:none;opacity:0.9;fill:#FFFFFF;enable-background:new    ;}
	
		.st1{clip-path:url(#SVGID_00000064355215979368129280000000866328055212212882_);fill:url(#SVGID_00000155868812017719931790000007265493133731951751_);}
	.st2{fill:#FFFFFF;}
	
		.st3{clip-path:url(#SVGID_00000129174409754921746020000003308631107051770532_);fill:url(#SVGID_00000124860811303833000230000016147791040204187048_);}
	.st4{fill:#4B4B4D;}
</style>
<g>
	<ellipse class="st0" cx="53.5" cy="122" rx="33.3" ry="33.2"/>
	<g>
		<g>
			<g>
				<g>
					<defs>
						<path id="SVGID_1_" d="M54,155.3c4.8-0.1,9.4-1.2,13.7-3.3c-4.3-0.5-7.9-0.8-13.9-3.8C53.7,152.3,53.8,154.1,54,155.3
							 M38.4,151.8c4.4,2.2,9.1,3.3,13.9,3.5c-0.2-1.2-0.3-3.3-0.4-7.6C45.7,150.3,42,151.8,38.4,151.8 M55.9,146.5
							c6.2,3.1,9.5,3.6,14.1,4.2c0,0,0,0,0.1,0c0.9-3.4,1.3-6.4,3-13.3C66.4,141.7,62.5,143.6,55.9,146.5 M75.7,137
							c-0.2,0.1-0.4,0.3-0.4,0.5c-0.7,2.5-1.1,4.5-1.5,6.3c-0.5,2.3-0.9,3.9-1.5,5.7c3.4-2.4,6.4-5.4,8.9-9.1
							c0.1-0.2,0.2-0.3,0.3-0.5c-0.1,0-0.1-0.1-0.1-0.1c-1-0.5-2.4-1.2-5-2.7c-0.1-0.1-0.2-0.1-0.4-0.1
							C75.9,136.9,75.8,136.9,75.7,137 M34.4,149.4c0.2,0.2,0.4,0.3,0.7,0.4c0.3,0.2,0.6,0.4,0.8,0.5c4,0.2,7.6-1.3,14.2-4.1
							c-7.3-3.9-12.1-7-18.7-12.2C31.8,141.4,32.4,145.6,34.4,149.4 M23,135.8c2.1,4.6,5.2,8.7,9.3,12c-1.8-3.5-2.3-7.9-2.7-14.8
							C25.7,134.8,24,135.6,23,135.8 M78.3,133.2c-0.3,0.2-0.4,0.5-0.4,0.8s0.2,0.7,0.4,0.8c2.2,1.6,3.3,2.4,4,3
							c1.9-3.5,3.2-7.3,3.8-11C84.4,128.8,82.6,130.3,78.3,133.2 M55.9,124.6L55.9,124.6c-0.3,0.2-0.4,0.4-0.4,0.6l-0.3,2.5
							c-0.6,6.3-1,10.1-1.2,15.7c0,0.3,0.1,0.5,0.3,0.6c0.2,0.2,0.5,0.2,0.7,0.1l0,0c5.9-2.6,10-4.5,16.7-8.5
							c0.2-0.1,0.3-0.4,0.3-0.6c0-0.3-0.2-0.5-0.3-0.6c-2.9-1.8-5.3-3.3-8.2-5.2c-2-1.3-4.2-2.7-7-4.5c-0.1-0.1-0.3-0.1-0.4-0.1
							C56.1,124.6,56,124.6,55.9,124.6 M42.6,128.1c-3.2,1.4-5.9,2.5-9.4,4.1c6.5,4.8,10.8,7.6,17.7,11.5c-0.2-6.9,0-11,0.7-19.6
							C48,125.9,45.2,127.1,42.6,128.1 M22.3,134.1c1-0.3,2.4-0.9,5.8-2.7c-4.8-4.2-6.4-7.1-8.1-10.2
							C19.9,125.6,20.7,130,22.3,134.1 M79.2,115.2L79.2,115.2c-0.3,0.1-0.4,0.4-0.4,0.7l0.1,1.2c0.1,4.8,0.2,7.4-0.9,12.4
							c-0.1,0.3,0.1,0.6,0.3,0.7s0.5,0.2,0.7,0.1c0.1,0,0.1-0.1,0.1-0.1c4-2.7,5.7-3.9,7.4-5.6c0.1-0.6,0.1-1.3,0.1-1.9
							c-1.8-2.4-3.1-4.1-6.5-7.4c-0.2-0.1-0.3-0.2-0.5-0.2C79.4,115.1,79.3,115.2,79.2,115.2 M74.7,113.5
							C74.7,113.5,74.6,113.5,74.7,113.5c-4,2.1-6.7,3.3-11.4,5.4l-3.7,1.6c-0.4,0.2-0.6,0.5-0.6,0.9s0.2,0.7,0.5,1
							c6.3,4,9.3,6,13.8,9.1c0.3,0.2,0.7,0.3,1,0.1h0.1c0.3-0.2,0.5-0.4,0.6-0.7c1.4-6.7,1.4-10.1,1.2-16.3c0-0.4-0.2-0.7-0.5-0.8
							c-0.2-0.1-0.4-0.2-0.5-0.2C74.9,113.4,74.8,113.4,74.7,113.5 M20.3,117.6c-0.1,0.3-0.1,0.6-0.1,1c1.9,3.3,3.4,5.9,8.5,10.2
							c-0.2-7.3,0.4-11.4,2.2-18.5C25.1,113.8,22.7,115.5,20.3,117.6 M33.6,110.2C33.6,110.2,33.5,110.2,33.6,110.2
							c-0.3,0.2-0.4,0.3-0.4,0.5c-1.5,6.7-2.1,10.7-1.9,17.8c0,0.3,0.2,0.5,0.3,0.6c0.2,0.1,0.4,0.2,0.6,0.1c0,0,0,0,0.1,0
							c4.7-2.3,8-3.8,13.6-6.3l3.4-1.5c0.3-0.1,0.4-0.3,0.4-0.6c0-0.3-0.1-0.5-0.3-0.6l-3.2-2.1c-5-3.1-8-5-11.8-7.8
							c-0.1-0.1-0.3-0.2-0.4-0.2C33.8,110.2,33.7,110.2,33.6,110.2 M81.8,110.5l-0.8,0.4c-0.3,0.2-0.5,0.4-0.5,0.7
							c-0.1,0.3,0,0.6,0.2,0.8c2.7,3.2,3.6,4.8,5.3,7.6c0.1,0.2,0.3,0.3,0.4,0.4c-0.2-3.9-1-7.6-2.5-11.3
							C83.5,109.6,82.9,109.9,81.8,110.5 M25.4,103.9c-2.3,3.6-3.9,7.4-4.7,11.3c2.2-2.1,4.7-3.8,9.3-6.9c0.2-0.1,0.3-0.3,0.3-0.6
							c0-0.2-0.1-0.4-0.3-0.6c-2.1-1.7-3.3-2.8-4.2-3.5c-0.1-0.1-0.2-0.2-0.2-0.2C25.6,103.6,25.5,103.7,25.4,103.9 M57.9,100.3
							C57.8,100.3,57.8,100.4,57.9,100.3c-0.4,0.3-0.6,0.6-0.6,0.9c-0.2,2.8-0.2,4.9-0.2,7.2c0,2.1,0,4.3-0.2,7.3
							c0,0.4,0.2,0.7,0.5,0.9c0.3,0.2,0.7,0.3,1,0.1c2.7-1.2,4.7-2,6.5-2.8c1.6-0.7,3.1-1.3,4.7-2c0.8-0.4,1.7-0.7,2.7-1.2
							c0.4-0.2,0.6-0.5,0.6-0.8c0.1-0.4-0.1-0.7-0.4-1c-5.2-3.7-8.1-5.6-13.6-8.7c-0.2-0.1-0.3-0.2-0.5-0.2
							C58.2,100.2,58.1,100.2,57.9,100.3 M51.9,99.3c-2.3,1-4.2,1.7-5.9,2.4c-3.1,1.3-5.6,2.6-9.3,4.7c-0.3,0.2-0.5,0.5-0.5,0.9
							s0.2,0.7,0.5,0.9c3.3,2.1,5.8,3.7,9.4,5.8l4.8,3c0.3,0.2,0.6,0.2,1,0.1H52c0.3-0.2,0.5-0.5,0.6-0.8c0.3-3.7,0.4-6.3,0.5-8.8
							c0.1-2.2,0.2-4.4,0.4-7c0.1-0.4-0.1-0.7-0.4-1c-0.2-0.2-0.4-0.2-0.6-0.2C52.2,99.2,52.1,99.2,51.9,99.3 M76.6,98.9
							c1,1.8,1.4,3.2,2,6.5c0.1,0.2,0.2,0.4,0.3,0.5c0.2,0.1,0.4,0.1,0.6,0.1c1.7-0.6,2.2-0.6,2.4-0.6c-1.5-2.5-3.3-4.9-5.4-7
							C76.5,98.5,76.6,98.7,76.6,98.9 M62.4,96.2C62.3,96.2,62.3,96.2,62.4,96.2c-0.5,0.3-0.7,0.6-0.7,0.9c-0.1,0.4,0.2,0.8,0.5,1
							c4.7,2.7,7,4.2,11,7.4c0.3,0.3,0.7,0.3,1.1,0.2c0,0,0.1,0,0.1-0.1c0.4-0.2,0.6-0.6,0.6-1l-0.1-0.7c-0.2-3.6-0.4-5.7-0.8-7.9
							c-0.8-0.7-1.7-1.3-2.6-1.9C71.4,94,71.4,94,71.4,94C68.8,94.2,66.4,94.9,62.4,96.2 M26.8,101.9c0.7,0.4,1.9,1.1,3.7,2.3
							l0.8,0.5c0.3,0.2,0.6,0.2,1,0.1h0.1c0.3-0.1,0.5-0.4,0.6-0.7c0.4-1.5,0.7-2.8,1-3.9c0.7-2.8,1.1-4.5,1.9-6.4
							C32.4,95.8,29.4,98.6,26.8,101.9 M38.5,92.3c-0.2,0.1-0.3,0.2-0.4,0.4c-0.8,2.3-1.2,4.1-1.9,7.6l-0.5,2.3
							c-0.1,0.3,0.1,0.6,0.3,0.7c0.2,0.2,0.5,0.2,0.7,0.1c0,0,0.1,0,0.1-0.1c3.8-2.2,6.1-3.2,9.6-4.7c1-0.4,2-0.8,3.1-1.3
							c0.3-0.1,0.4-0.4,0.4-0.6s-0.2-0.5-0.4-0.6c-4.9-2.1-7.1-2.8-10.5-3.8c-0.1,0-0.1-0.1-0.2-0.1S38.6,92.3,38.5,92.3 M59.4,92
							c0,0.2,0.1,0.4,0.3,0.5s0.4,0.2,0.6,0.1c3.4-0.7,5.1-1,7.3-0.6c-2.8-1.3-5.7-2.2-8.6-2.8C59.2,89.6,59.3,90.3,59.4,92
							 M41.6,90.9c0.2,0.3,0.4,0.6,0.8,0.6c3.5,0.7,5.5,1.1,9.7,2.2c0.2,0.1,0.5,0.1,0.7-0.1c0.1,0,0.1-0.1,0.2-0.1
							c0.3-0.2,0.4-0.4,0.5-0.7l0.2-1c0.3-1.5,0.4-2.4,0.5-3.1c-0.3,0-0.5,0-0.8,0C49.3,88.8,45.3,89.6,41.6,90.9"/>
					</defs>
					<clipPath id="SVGID_00000161634105820575266170000013591351596858363068_">
						<use xlink:href="#SVGID_1_"  style="overflow:visible;"/>
					</clipPath>
					
						<linearGradient id="SVGID_00000087383421222763648780000003434115272127669406_" gradientUnits="userSpaceOnUse" x1="-785.9249" y1="399.3697" x2="-785.3942" y2="399.3697" gradientTransform="matrix(0.2281 -120.8382 120.8382 0.2281 -48026.7227 -94905.1641)">
						<stop  offset="0" style="stop-color:#F6C900"/>
						<stop  offset="0.2743" style="stop-color:#F8D400"/>
						<stop  offset="0.7232" style="stop-color:#FBE300"/>
						<stop  offset="1" style="stop-color:#FDE800"/>
					</linearGradient>
					
						<polygon style="clip-path:url(#SVGID_00000161634105820575266170000013591351596858363068_);fill:url(#SVGID_00000087383421222763648780000003434115272127669406_);" points="
						19.8,155.3 19.9,88.7 86.6,88.8 86.4,155.4 					"/>
				</g>
			</g>
		</g>
	</g>
	<g>
		<g>
			<g>
				<path class="st2" d="M221.3,139c-0.7,0-1.2,0.4-1.7,1.1c-0.1-0.4-0.3-0.6-0.5-0.8s-0.5-0.3-0.8-0.3c-0.6,0-1.2,0.4-1.6,1.1
					l-0.1-0.8h-1.7v7h1.9v-4.9c0.3-0.5,0.5-0.8,0.7-0.8c0.3,0,0.4,0.2,0.4,0.7v5h1.9v-4.9c0.3-0.5,0.5-0.8,0.7-0.8
					c0.1,0,0.2,0.1,0.3,0.2c0.1,0.1,0.1,0.3,0.1,0.5v5h2V141c0-0.6-0.2-1.1-0.4-1.4C222.2,139.1,221.8,139,221.3,139 M213.7,139.2
					h-2v5c-0.2,0.5-0.5,0.7-0.7,0.7c-0.1,0-0.2-0.1-0.3-0.2c-0.1-0.1-0.1-0.3-0.1-0.5v-5.1h-2v5.2c0,0.6,0.2,1.1,0.4,1.5
					c0.3,0.4,0.7,0.5,1.2,0.5c0.7,0,1.3-0.3,1.6-1l0.1,0.8h1.8V139.2L213.7,139.2z M207.5,139c-0.7,0-1.2,0.4-1.5,1.3l-0.2-1.2h-1.7
					v7h2v-3.8c0.1-0.5,0.3-0.9,0.4-1.1c0.2-0.3,0.4-0.4,0.7-0.4c0.2,0,0.3,0,0.5,0.1l0.3-1.9C207.9,139,207.7,139,207.5,139
					 M203,144.6c-0.2,0.1-0.4,0.2-0.6,0.2c-0.3,0-0.5-0.2-0.5-0.6v-3.7h1.1l0.2-1.4H202v-1.8l-2,0.2v1.5h-0.7v1.4h0.7v3.7
					c0,0.6,0.2,1.2,0.5,1.5c0.3,0.4,0.8,0.6,1.5,0.6c0.3,0,0.6-0.1,0.9-0.2c0.3-0.1,0.5-0.2,0.7-0.4L203,144.6z M197.1,139
					c-0.4,0-0.7,0.1-1,0.3s-0.5,0.4-0.7,0.8l-0.2-0.8h-1.7v7h2v-4.9c0.3-0.6,0.6-0.8,0.8-0.8s0.4,0.2,0.4,0.7v5h2V141
					c0-0.6-0.2-1.1-0.4-1.4C198,139.1,197.6,139,197.1,139 M190.7,142h-1.6c0.1-0.7,0.1-1.2,0.3-1.4c0.2-0.3,0.3-0.4,0.6-0.4
					s0.5,0.2,0.6,0.4C190.7,141,190.7,141.4,190.7,142L190.7,142z M192.6,142.5c0-1.2-0.3-2.1-0.7-2.7c-0.5-0.6-1.2-0.9-2-0.9
					c-0.9,0-1.6,0.3-2.1,1s-0.7,1.6-0.7,2.8s0.3,2.1,0.7,2.7c0.5,0.6,1.3,1,2.2,1s1.7-0.3,2.3-1l-0.8-1.1c-0.3,0.2-0.5,0.3-0.7,0.4
					c-0.2,0.1-0.4,0.2-0.7,0.2c-0.4,0-0.6-0.1-0.8-0.4s-0.3-0.7-0.4-1.3h3.6C192.6,143.1,192.6,142.8,192.6,142.5 M182.1,139.2v1.5
					h2.4l-2.6,4.1v1.4h4.7l0.2-1.5h-2.7l2.6-4.1v-1.4H182.1L182.1,139.2z M179.2,139c-0.7,0-1.4,0.2-1.8,0.6
					c-0.4,0.4-0.6,0.9-0.6,1.5c0,0.5,0.1,0.9,0.4,1.2s0.7,0.6,1.3,0.8c0.5,0.2,0.8,0.4,1,0.5c0.2,0.2,0.2,0.3,0.2,0.6
					c0,0.2-0.1,0.4-0.2,0.5c-0.2,0.1-0.3,0.2-0.6,0.2c-0.4,0-0.9-0.2-1.4-0.6l-1,1c0.3,0.3,0.7,0.6,1.1,0.7c0.4,0.2,0.9,0.3,1.4,0.3
					c0.8,0,1.4-0.2,1.9-0.6c0.5-0.4,0.7-1,0.7-1.6c0-0.5-0.2-1-0.4-1.3c-0.3-0.3-0.7-0.6-1.3-0.8c-0.5-0.2-0.8-0.4-1-0.5
					s-0.2-0.3-0.2-0.5s0.1-0.3,0.2-0.4c0.1-0.1,0.3-0.2,0.5-0.2c0.4,0,0.8,0.2,1.3,0.5l0.7-1.1c-0.3-0.3-0.6-0.5-1-0.6
					C180.1,139,179.6,139,179.2,139 M173.6,140.3c0.3,0,0.4,0.1,0.5,0.3s0.2,0.5,0.2,0.9c0,0.5-0.1,0.8-0.2,1
					c-0.1,0.2-0.3,0.3-0.5,0.3c-0.5,0-0.7-0.4-0.7-1.2c0-0.4,0.1-0.7,0.2-0.9C173.2,140.3,173.3,140.3,173.6,140.3 M176.2,138.2
					c-0.4,0.3-0.8,0.5-1.2,0.6c-0.4,0.2-0.8,0.2-1.4,0.2c-0.8,0-1.5,0.2-2,0.7c-0.5,0.4-0.7,1.1-0.7,1.9c0,0.5,0.1,0.8,0.3,1.2
					s0.4,0.6,0.8,0.8c-0.2,0.2-0.4,0.4-0.5,0.6c-0.1,0.2-0.2,0.5-0.2,0.7c0,0.4,0.2,0.7,0.5,1s0.8,0.4,1.5,0.4h0.5
					c0.3,0,0.5,0.1,0.7,0.2c0.2,0.1,0.2,0.3,0.2,0.6c0,0.6-0.4,0.8-1.1,0.8c-0.4,0-0.7-0.1-0.8-0.2c-0.2-0.2-0.2-0.4-0.2-0.7h-1.8
					c0,0.7,0.2,1.3,0.6,1.7c0.4,0.4,1.2,0.6,2.2,0.6s1.8-0.2,2.3-0.6c0.5-0.4,0.8-1,0.8-1.6s-0.2-1.1-0.6-1.4
					c-0.4-0.4-1-0.5-1.8-0.5h-0.7c-0.3,0-0.4-0.1-0.5-0.1c-0.1-0.1-0.2-0.2-0.2-0.3c0-0.2,0.1-0.4,0.2-0.4c0.2,0.1,0.4,0.1,0.6,0.1
					c0.8,0,1.4-0.2,1.9-0.6s0.7-1,0.7-1.7c0-0.4-0.1-0.8-0.3-1.1s-0.5-0.5-0.8-0.7c0.7,0,1.3-0.1,1.6-0.3L176.2,138.2z M168.5,139
					c-0.4,0-0.7,0.1-1,0.3s-0.5,0.4-0.7,0.8l-0.2-0.8h-1.7v7h2v-4.9c0.3-0.6,0.6-0.8,0.8-0.8s0.4,0.2,0.4,0.7v5h2V141
					c0-0.6-0.2-1.1-0.4-1.4C169.4,139.1,169,139,168.5,139 M163.7,139.2h-2v5c-0.2,0.5-0.5,0.7-0.7,0.7c-0.1,0-0.2-0.1-0.3-0.2
					c-0.1-0.1-0.1-0.3-0.1-0.5v-5.1h-2v5.2c0,0.6,0.2,1.1,0.4,1.5c0.3,0.4,0.7,0.5,1.2,0.5c0.7,0,1.3-0.3,1.7-1l0.1,0.8h1.8
					L163.7,139.2L163.7,139.2z M154.7,144.9c-0.3,0-0.5-0.2-0.6-0.5c-0.2-0.3-0.2-0.9-0.2-1.8c0-1.5,0.3-2.2,0.9-2.2
					c0.2,0,0.3,0.1,0.4,0.2c0.1,0.1,0.2,0.2,0.3,0.4v3.3C155.3,144.7,155,144.9,154.7,144.9 M155.5,136.2v3.4
					c-0.3-0.4-0.8-0.6-1.3-0.6s-0.8,0.2-1.2,0.5s-0.6,0.7-0.8,1.3s-0.3,1.2-0.3,2c0,1.2,0.2,2.1,0.6,2.8s0.9,1,1.6,1
					c0.4,0,0.7-0.1,0.9-0.3c0.3-0.2,0.5-0.4,0.7-0.7l0.1,0.7h1.8v-9.8L155.5,136.2z M150.5,146.4c0.2,0,0.4,0,0.6-0.1
					c0.2-0.1,0.4-0.1,0.5-0.2l-0.4-1.4c-0.1,0-0.2,0.1-0.2,0.1c-0.2,0-0.3-0.1-0.3-0.3v-8.3l-2,0.2v8.2c0,0.6,0.2,1,0.5,1.3
					C149.5,146.2,149.9,146.4,150.5,146.4 M146.6,135.5c-0.3,0-0.6,0.1-0.8,0.3s-0.3,0.5-0.3,0.8s0.1,0.6,0.3,0.8s0.5,0.3,0.8,0.3
					s0.6-0.1,0.8-0.3s0.3-0.5,0.3-0.8s-0.1-0.6-0.3-0.8C147.2,135.6,146.9,135.5,146.6,135.5 M145.6,146.2h2v-7h-2V146.2z
					 M141.4,144.6h-0.5v-2.5h0.5c0.4,0,0.7,0.1,1,0.3s0.3,0.5,0.3,1s-0.1,0.8-0.3,1S141.8,144.6,141.4,144.6 M141.3,138.5
					c0.4,0,0.7,0.1,0.8,0.3s0.3,0.4,0.3,0.8s-0.1,0.6-0.3,0.8s-0.4,0.3-0.8,0.3h-0.4v-2.2L141.3,138.5L141.3,138.5z M143,141.4
					c0.5-0.1,0.8-0.4,1.1-0.7s0.4-0.7,0.4-1.3c0-0.8-0.3-1.4-0.9-1.8c-0.6-0.4-1.4-0.6-2.5-0.6h-2.2v9.1h2.5c1.1,0,1.9-0.2,2.5-0.6
					c0.6-0.4,0.9-1.1,0.9-2c0-0.6-0.2-1.2-0.5-1.5C144,141.7,143.5,141.5,143,141.4 M137.8,141.3h-3.6v1.5h3.6V141.3z M131.5,142
					h-1.6c0.1-0.7,0.1-1.2,0.3-1.4c0.2-0.3,0.3-0.4,0.6-0.4s0.5,0.2,0.6,0.4C131.4,141,131.5,141.4,131.5,142L131.5,142z
					 M133.4,142.5c0-1.2-0.3-2.1-0.7-2.7s-1.2-0.9-2-0.9c-0.9,0-1.6,0.3-2.1,1s-0.7,1.6-0.7,2.8s0.3,2.1,0.7,2.7
					c0.5,0.6,1.3,1,2.2,1s1.7-0.3,2.3-1l-0.8-1.1c-0.3,0.2-0.5,0.3-0.7,0.4c-0.2,0.1-0.4,0.2-0.7,0.2c-0.4,0-0.6-0.1-0.8-0.4
					c-0.2-0.3-0.3-0.7-0.4-1.3h3.6C133.4,143.1,133.4,142.8,133.4,142.5 M125.9,135.5c-0.3,0-0.6,0.1-0.8,0.3
					c-0.2,0.2-0.3,0.5-0.3,0.8s0.1,0.6,0.3,0.8c0.2,0.2,0.5,0.3,0.8,0.3s0.6-0.1,0.8-0.3c0.2-0.2,0.3-0.5,0.3-0.8s-0.1-0.6-0.3-0.8
					C126.6,135.6,126.2,135.5,125.9,135.5 M125,146.2h2v-7h-2V146.2z M121.3,140.3c0.3,0,0.4,0.1,0.5,0.3s0.2,0.5,0.2,0.9
					c0,0.5-0.1,0.8-0.2,1s-0.3,0.3-0.5,0.3c-0.5,0-0.7-0.4-0.7-1.2c0-0.4,0.1-0.7,0.2-0.9C120.9,140.3,121.1,140.3,121.3,140.3
					 M124,138.2c-0.4,0.3-0.8,0.5-1.2,0.6s-0.8,0.2-1.4,0.2c-0.8,0-1.5,0.2-2,0.7c-0.5,0.4-0.7,1.1-0.7,1.9c0,0.5,0.1,0.8,0.3,1.2
					c0.2,0.3,0.4,0.6,0.8,0.8c-0.2,0.2-0.4,0.4-0.5,0.6c-0.1,0.2-0.2,0.5-0.2,0.7c0,0.4,0.2,0.7,0.5,1s0.8,0.4,1.5,0.4h0.5
					c0.3,0,0.5,0.1,0.7,0.2c0.2,0.1,0.2,0.3,0.2,0.6c0,0.6-0.4,0.8-1.1,0.8c-0.4,0-0.7-0.1-0.8-0.2c-0.2-0.2-0.2-0.4-0.2-0.7h-1.8
					c0,0.7,0.2,1.3,0.6,1.7s1.2,0.6,2.2,0.6s1.8-0.2,2.3-0.6c0.5-0.4,0.8-1,0.8-1.6s-0.2-1.1-0.6-1.4c-0.4-0.4-1-0.5-1.8-0.5h-0.7
					c-0.3,0-0.4-0.1-0.5-0.1s-0.2-0.2-0.2-0.3c0-0.2,0.1-0.4,0.2-0.4c0.2,0.1,0.4,0.1,0.6,0.1c0.8,0,1.4-0.2,1.9-0.6s0.7-1,0.7-1.7
					c0-0.4-0.1-0.8-0.3-1.1c-0.2-0.3-0.5-0.5-0.8-0.7c0.7,0,1.3-0.1,1.6-0.3L124,138.2z M118,139c-0.7,0-1.2,0.4-1.5,1.3l-0.2-1.2
					h-1.7v7h2v-3.8c0.1-0.5,0.2-0.9,0.4-1.1c0.2-0.3,0.4-0.4,0.7-0.4c0.2,0,0.3,0,0.5,0.1l0.3-1.9C118.4,139,118.2,139,118,139
					 M111.8,142h-1.6c0.1-0.7,0.1-1.2,0.3-1.4c0.2-0.3,0.3-0.4,0.6-0.4c0.3,0,0.5,0.2,0.6,0.4S111.8,141.4,111.8,142L111.8,142z
					 M113.8,142.5c0-1.2-0.3-2.1-0.7-2.7c-0.5-0.6-1.2-0.9-2-0.9c-0.9,0-1.6,0.3-2.1,1s-0.7,1.6-0.7,2.8s0.3,2.1,0.7,2.7
					c0.5,0.6,1.3,1,2.2,1c0.9,0,1.7-0.3,2.3-1l-0.8-1.1c-0.3,0.2-0.5,0.3-0.7,0.4c-0.2,0.1-0.4,0.2-0.7,0.2c-0.4,0-0.6-0.1-0.8-0.4
					s-0.3-0.7-0.4-1.3h3.6C113.8,143.1,113.8,142.8,113.8,142.5 M105.7,139c-0.4,0-0.7,0.1-1,0.3s-0.5,0.4-0.7,0.8l-0.2-0.8h-1.7v7
					h2v-4.9c0.3-0.6,0.6-0.8,0.8-0.8c0.3,0,0.4,0.2,0.4,0.7v5h2V141c0-0.6-0.2-1.1-0.4-1.4C106.6,139.1,106.2,139,105.7,139
					 M96.6,137.1v9.1h4.8v-1.5h-2.7v-2.4h2.2v-1.4h-2.2v-2.3h2.5l0.2-1.5L96.6,137.1L96.6,137.1z"/>
			</g>
		</g>
		<g>
			<g>
				<path class="st2" d="M221.9,121.6c-0.5,0.3-1.1,0.5-1.6,0.5c-0.4,0-0.8-0.2-1-0.5c-0.3-0.3-0.4-0.8-0.4-1.6v-6.6h3.3l0.6-4.4h-4
					v-4.5l-6.5,0.7v3.7h-2.1v4.4h2.1v6.7c0,2.3,0.5,4.1,1.5,5.3c1.1,1.2,2.7,1.8,4.8,1.8c0.9,0,1.8-0.1,2.8-0.4s1.8-0.6,2.5-1.1
					L221.9,121.6z M205.9,127.2c1.4,0,2.6-0.2,3.6-0.6l-1.2-4.7c-0.2,0.1-0.4,0.1-0.7,0.1c-0.5,0-0.8-0.3-0.8-0.9v-19.8l-6.5,0.6
					v19.4c0,1.8,0.5,3.2,1.4,4.2C202.8,126.7,204.1,127.2,205.9,127.2 M191,115.9h-4.4c0.1-1.3,0.4-2.2,0.7-2.8
					c0.4-0.5,0.9-0.7,1.6-0.7s1.3,0.3,1.6,0.8c0.3,0.6,0.5,1.4,0.5,2.4L191,115.9L191,115.9z M197.4,117.5c0-1.9-0.4-3.6-1.1-5
					c-0.7-1.4-1.7-2.4-3-3.2c-1.3-0.7-2.8-1.1-4.6-1.1c-1.9,0-3.4,0.4-4.8,1.3c-1.3,0.8-2.3,2-3,3.4s-1,3-1,4.8
					c0,2.8,0.8,5.1,2.4,6.8c1.6,1.8,4,2.6,7.1,2.6c2.7,0,5.1-0.8,7.3-2.6l-2.7-3.6c-0.7,0.5-1.5,0.9-2.1,1.2
					c-0.6,0.3-1.3,0.4-1.9,0.4c-1.1,0-1.9-0.2-2.4-0.6c-0.6-0.4-0.9-1.2-1.1-2.4h10.7C197.4,118.7,197.4,118.1,197.4,117.5
					 M173.4,108.9l-1.5,12.6l-1.9-12.6h-6.1l-2.3,12.6l-1.1-12.6H154l3.5,17.6h7.4l1.8-11.8l1.9,11.8h7.5l3.4-17.6H173.4z"/>
			</g>
		</g>
	</g>
	<g>
		<g>
			<g>
				<g>
					<defs>
						<path id="SVGID_00000182505123083239725720000005883580241821613446_" d="M146.1,121.3c-0.6,0.7-1,1.5-1,2.4s0.3,1.7,1,2.4
							c0.6,0.7,1.5,1,2.4,1c1,0,1.8-0.3,2.4-1c0.6-0.7,1-1.5,1-2.4s-0.3-1.7-1-2.4c-0.6-0.7-1.5-1-2.4-1S146.8,120.6,146.1,121.3
							 M146.1,110.4c-0.6,0.7-1,1.5-1,2.4s0.3,1.7,1,2.4c0.6,0.7,1.5,1,2.4,1c1,0,1.8-0.3,2.4-1c0.6-0.7,1-1.5,1-2.4s-0.3-1.7-1-2.4
							c-0.6-0.7-1.5-1-2.4-1S146.8,109.7,146.1,110.4"/>
					</defs>
					<clipPath id="SVGID_00000128452470095285987790000006847593507391767467_">
						<use xlink:href="#SVGID_00000182505123083239725720000005883580241821613446_"  style="overflow:visible;"/>
					</clipPath>
					
						<linearGradient id="SVGID_00000034077106343730605550000005242646343012088202_" gradientUnits="userSpaceOnUse" x1="-728.4403" y1="434.1594" x2="-727.9093" y2="434.1594" gradientTransform="matrix(12.7916 0 0 12.7916 9463.0508 -5435.3438)">
						<stop  offset="0" style="stop-color:#F6C900"/>
						<stop  offset="1" style="stop-color:#FDE800"/>
					</linearGradient>
					
						<rect x="145.1" y="109.4" style="clip-path:url(#SVGID_00000128452470095285987790000006847593507391767467_);fill:url(#SVGID_00000034077106343730605550000005242646343012088202_);" width="6.8" height="17.7"/>
				</g>
			</g>
		</g>
	</g>
	<g>
		<g>
			<g>
				<path class="st2" d="M137.2,108.2c-1.1,0-2.1,0.2-2.9,0.6c-0.8,0.4-1.6,1.1-2.4,1.9c-0.4-0.8-0.8-1.4-1.5-1.9
					c-0.7-0.4-1.5-0.6-2.4-0.6c-1.1,0-2,0.2-2.8,0.6s-1.6,1-2.3,1.9l-0.5-1.8h-5.7v17.6h6.5v-11.7c0.3-0.6,0.5-1,0.8-1.3
					s0.6-0.4,1-0.4c0.3,0,0.5,0.1,0.6,0.4c0.2,0.3,0.2,0.7,0.2,1.3v11.8h6.5v-11.7c0.3-0.6,0.5-1,0.8-1.3s0.6-0.4,1-0.4
					c0.3,0,0.5,0.1,0.6,0.4c0.2,0.3,0.2,0.7,0.2,1.3v11.8h6.5v-12.9c0-1.6-0.4-2.9-1.2-3.9C139.6,108.6,138.6,108.2,137.2,108.2
					 M113,108.9h-6.5v12c-0.3,0.5-0.6,0.8-1,1.1c-0.3,0.3-0.7,0.4-1,0.4c-0.4,0-0.6-0.1-0.8-0.4c-0.2-0.3-0.3-0.7-0.3-1.3v-11.8
					h-6.5v12.6c0,1.8,0.4,3.1,1.2,4.1c0.8,1,2.1,1.5,3.7,1.5c2.3,0,4-0.8,5.2-2.5l0.2,1.9h5.7L113,108.9L113,108.9z"/>
			</g>
		</g>
	</g>
</g>
<g>
	<g>
		<g>
			<path class="st4" d="M306.8,91.5c-1.1,0-2.1,0.2-2.9,0.6c-0.8,0.4-1.6,1.1-2.4,1.9c-0.4-0.8-0.8-1.4-1.5-1.9
				c-0.7-0.4-1.5-0.6-2.4-0.6c-1.1,0-2,0.2-2.8,0.6c-0.8,0.4-1.6,1-2.3,1.9l-0.5-1.8h-5.7v17.6h6.5V98.1c0.3-0.6,0.5-1,0.8-1.3
				c0.3-0.3,0.6-0.4,1-0.4c0.3,0,0.5,0.1,0.6,0.4c0.2,0.3,0.2,0.7,0.2,1.3v11.8h6.5V98.2c0.3-0.6,0.5-1,0.8-1.3
				c0.3-0.3,0.6-0.4,1-0.4c0.3,0,0.5,0.1,0.6,0.4c0.2,0.3,0.2,0.7,0.2,1.3V110h6.5V97.1c0-1.6-0.4-2.9-1.2-3.9
				C309.2,91.9,308.2,91.5,306.8,91.5 M282.6,92.2h-6.5v12c-0.3,0.5-0.6,0.8-1,1.1c-0.3,0.3-0.7,0.4-1,0.4c-0.4,0-0.6-0.1-0.8-0.4
				c-0.2-0.3-0.3-0.7-0.3-1.3V92.2h-6.5v12.6c0,1.8,0.4,3.1,1.2,4.1c0.8,1,2.1,1.5,3.7,1.5c2.3,0,4-0.8,5.2-2.5l0.2,1.9h5.7
				L282.6,92.2L282.6,92.2z"/>
		</g>
	</g>
</g>
</svg>
