<?xml version="1.0" encoding="utf-8"?>
<!-- Generator: Adobe Illustrator 27.8.0, SVG Export Plug-In . SVG Version: 6.00 Build 0)  -->
<svg version="1.1" id="Layer_1" xmlns="http://www.w3.org/2000/svg" xmlns:xlink="http://www.w3.org/1999/xlink" x="0px" y="0px"
	 viewBox="0 0 244 244" style="enable-background:new 0 0 244 244;" xml:space="preserve">
<style type="text/css">
	.st0{fill:none;}
	.st1{clip-path:url(#SVGID_00000062170979403249690120000013932693869170963606_);}
	.st2{fill:#FFFFFF;}
</style>
<g>
	<g id="Group_3">
		<path id="Clip_2-2" class="st0" d="M24.3,96.8h99.6v50.4H24.3V96.8z"/>
		<g>
			<defs>
				<rect id="SVGID_1_" x="24.3" y="96.8" width="99.6" height="50.4"/>
			</defs>
			<clipPath id="SVGID_00000043426090936732748210000011970731086177524905_">
				<use xlink:href="#SVGID_1_"  style="overflow:visible;"/>
			</clipPath>
			<g id="Group_3-2" style="clip-path:url(#SVGID_00000043426090936732748210000011970731086177524905_);">
				<path id="Fill_1" class="st2" d="M111.8,147.2c-0.2,0-0.4,0-0.4,0c-2.5-0.1-5-0.9-7.1-2.4c-1.8-1.3-3.1-3.1-3.8-5.2
					c-0.4-1.1-0.7-2.2-0.8-3.4v-26.8h7.1v25.9c0,0.8,0.2,1.6,0.6,2.4c1.6,2.4,4.9,3.1,7.3,1.6c0.6-0.4,1.1-0.9,1.6-1.5
					c0.4-0.7,0.6-1.5,0.6-2.4v-9.6h-3.6v-6.2h10.7v16.7c-0.1,1.2-0.4,2.3-0.8,3.4c-0.7,2.1-2,3.9-3.8,5.2c-2.1,1.4-4.5,2.3-7.1,2.4
					C112.2,147.2,112,147.2,111.8,147.2z M74.1,147.2c-0.2,0-0.4,0-0.4,0c-2.5-0.1-5-0.9-7.1-2.4c-1.8-1.3-3.1-3.1-3.8-5.2
					c-0.4-1.1-0.7-2.2-0.8-3.4v-3.4h7.1v2.5c0,0.8,0.2,1.6,0.6,2.4c0.9,1.6,2.6,2.5,4.4,2.4c1.8,0.1,3.6-0.8,4.5-2.4
					c0.4-0.7,0.6-1.5,0.6-2.4v-6.2c0-1.1-0.6-2.1-1.4-2.8c-2.3-1.2-4.7-2.2-7.2-3.2c-1.3-0.5-2.5-1-3.8-1.6
					c-1.9-1.3-3.4-3.2-4.1-5.4c-0.4-1.1-0.6-2.2-0.7-3.4v-3.4h7.1v1.3c0,0-0.2,3.8,1.5,4.8c2.3,1.2,4.7,2.2,7.1,3.2
					c1.3,0.5,2.5,1,3.8,1.6c2.1,1.2,3.6,3.1,4.3,5.4c0.4,2.2,0.6,4.5,0.6,6.7l-0.1,3.8c-0.1,1.2-0.4,2.3-0.8,3.4
					c-0.7,2.1-2.1,3.9-3.8,5.2c-2.1,1.4-4.5,2.3-7.1,2.4C74.5,147.2,74.3,147.2,74.1,147.2z M36.4,147.2c-0.2,0-0.4,0-0.4,0
					c-2.5-0.1-5-0.9-7.1-2.4c-1.8-1.3-3.1-3.1-3.8-5.2c-0.4-1.1-0.7-2.2-0.8-3.4v-26.8h7.1v25.9c0,0.8,0.2,1.6,0.6,2.4
					c0.9,1.6,2.6,2.5,4.4,2.4c1.8,0.1,3.6-0.8,4.5-2.4c0.4-0.7,0.6-1.5,0.6-2.4v-9.6h-3.6v-6.3h10.7v16.7c-0.1,1.2-0.4,2.3-0.8,3.4
					c-0.7,2.1-2,3.9-3.8,5.2c-2.1,1.4-4.5,2.3-7.1,2.4C36.8,147.2,36.6,147.2,36.4,147.2z M123.1,104.6h-22.9
					c0.9-2.3,2.4-4.2,4.4-5.6c4.2-2.9,9.9-2.9,14.1,0C120.7,100.3,122.3,102.3,123.1,104.6L123.1,104.6z M85.8,104.6H62.9
					c0.9-2.3,2.4-4.2,4.4-5.6c4.2-2.9,9.8-2.9,14.1,0C83.4,100.3,85,102.3,85.8,104.6L85.8,104.6z M47.9,104.6H25
					c0.9-2.3,2.4-4.2,4.4-5.6c4.2-2.9,9.8-2.9,14.1,0C45.5,100.3,47,102.3,47.9,104.6L47.9,104.6z"/>
			</g>
		</g>
	</g>
	<path id="Fill_4" class="st2" d="M144.1,147.2h1.3V96.8h-1.3V147.2z"/>
	<path id="Fill_5" class="st2" d="M209.7,146h-1.2v-13.9h1.2l8.9,12v-12h1.2V146h-1.2l-8.8-12V146z M178.1,146H177v-13.9h5.8
		c1.1-0.1,2.3,0.3,3.2,1c0.8,0.7,1.3,1.7,1.2,2.8c0,0.9-0.3,1.8-0.9,2.5c-0.7,0.7-1.6,1.1-2.6,1.2l3.7,6.4H186l-3.7-6.4h-4.2V146z
		 M178.1,133v5.6h4.5c0.9,0,1.7-0.2,2.5-0.7c0.6-0.5,1-1.3,0.9-2.1c0-0.8-0.3-1.6-0.9-2.1c-0.7-0.5-1.6-0.8-2.5-0.7L178.1,133z
		 M204.3,146h-1.2v-13.9h1.2V146z M200.1,146h-9.3v-13.9h1.2V145h8.1L200.1,146L200.1,146z M173.6,146h-9.3v-13.9h9.3v0.9h-8.1v5.5
		h6.9v0.9h-6.9v5.6h8.1L173.6,146L173.6,146z M156.2,146h-5.8v-13.9h5.6c1.1,0,2.3,0.3,3.2,1c0.8,0.6,1.3,1.6,1.3,2.7
		c0,0.7-0.2,1.4-0.6,1.9c-0.4,0.6-1.1,1-1.7,1.2c0.8,0.2,1.4,0.6,1.9,1.2c0.5,0.6,0.7,1.3,0.7,2.1c0.1,1.1-0.4,2.1-1.2,2.8
		C158.5,145.7,157.4,146,156.2,146z M151.5,139.3v5.7h4.5c0.9,0,1.8-0.2,2.5-0.7c0.6-0.5,1-1.3,1-2.1c0-0.8-0.3-1.6-1-2.1
		c-0.7-0.5-1.6-0.8-2.5-0.7L151.5,139.3z M151.5,133v5.4h4.4c0.9,0,1.7-0.2,2.4-0.6c0.7-0.5,1-1.2,1-2c0-0.8-0.3-1.6-1-2
		c-0.7-0.5-1.6-0.7-2.4-0.6L151.5,133z"/>
</g>
</svg>
