<?xml version="1.0" encoding="utf-8"?>
<!-- Generator: Adobe Illustrator 27.8.0, SVG Export Plug-In . SVG Version: 6.00 Build 0)  -->
<svg version="1.1" id="Layer_1" xmlns="http://www.w3.org/2000/svg" xmlns:xlink="http://www.w3.org/1999/xlink" x="0px" y="0px"
	 viewBox="0 0 244 244" style="enable-background:new 0 0 244 244;" xml:space="preserve">
<style type="text/css">
	.st0{fill:#08548E;}
</style>
<g id="l43B7gZAIfJbhzmz25lySbb" transform="translate(-65 -12)">
	<g id="Gruppe_1" transform="translate(65 12)">
		<path id="ppms5Pj4r" class="st0" d="M130,160.6c-4.7-0.5-8.4-1.6-16.2-4.5c-8.5-3.2-11.8-4.2-17.2-5.2c-3.4-0.6-6.9-1-10.3-1.2
			c-1.9,0-1.5-0.1,2.7-1c4.2-0.9,8.6-1.3,12.9-1.3c5.7,0,8.2,0.3,19.6,2.2c12.3,2.1,18.1,2.7,28.2,2.7c10.6,0,16.7-0.8,28.5-3.7
			c1.1-0.3,2.3-0.6,2.5-0.6c1.6-0.4-10.1,4.4-15.7,6.4C150.7,159.5,138.7,161.6,130,160.6z"/>
		<path id="poKbTHcy3" class="st0" d="M144.9,149.9c-6.9-0.5-13.7-1.4-20.5-2.8c-14-2.5-18.6-3-27.3-3c-5.3-0.1-10.6,0.3-15.9,1.2
			c-3.8,0.6-3.8,0.6-8.9-0.9c-10.4-3.1-18.3-4.2-31.9-4.6l-5.7-0.1l6.2-1.1c23-4,40.9-5.6,55.9-5.1c11.1,0.4,17.9,1.3,33.2,4.5
			c8.1,1.8,16.3,3,24.5,3.7c7.5,0.3,15,0.2,22.4-0.3c8.3-0.8,18.7-2.3,28-4.1c2.4-0.5,4.3-0.8,4.4-0.8c-0.8,0.4-1.6,0.8-2.4,1.1
			c-14.7,6.3-30.3,10.3-46.2,11.8C157.6,149.8,147.6,150,144.9,149.9z"/>
		<path id="pjVi6i5Av" class="st0" d="M159.3,139.7c-0.5,0-2-0.2-3.4-0.3c-1.4-0.1-4-0.4-5.6-0.6c-3.6-0.5-16.6-3-24.4-4.8
			c-3-0.7-6.8-1.5-8.4-1.8c-7.7-1.4-15.5-2.2-23.3-2.4l-5.6-0.1v-29.1h67.7l0,16.2l0.1,16.2l1.9,0.6c5.1,1.5,10.4,2.5,15.7,3
			c4.6,0.4,9.2,0.5,13.9,0.4H198l-2.2,0.4c-9.2,1.5-18.6,2.3-27.9,2.4C163.6,139.7,159.7,139.7,159.3,139.7z M98.6,125.6
			c0.5-0.2,1-0.4,1.4-0.8c0.5-0.4,0.7-1.1,0.6-1.7c0.1-0.6-0.1-1.1-0.5-1.6c-0.2-0.2-0.4-0.4-0.7-0.5c-0.4,0-0.3-0.2,0.2-0.9
			c0.8-0.9,0.7-2.3-0.2-3c-0.3-0.2-0.6-0.4-0.9-0.5c-1-0.2-1.9-0.2-2.9-0.2h-2.1v9.4h2.1C96.7,125.8,97.7,125.8,98.6,125.6
			L98.6,125.6z M107.6,125.6c0-0.1,0.2-0.7,0.3-1.1l0.2-0.9h2.7l0.2,0.9c0.1,0.5,0.3,1,0.3,1.1c0.1,0.2,0.5,0.3,1.3,0.3
			c0.9,0,1.1-0.1,1.1-0.3c0-0.1-0.5-1.7-1.1-3.4c-0.5-1.7-1.2-3.7-1.4-4.4l-0.4-1.3h-2.6l-1.4,4.5c-0.8,2.5-1.4,4.6-1.4,4.7
			C105.4,125.9,107.5,125.9,107.6,125.6L107.6,125.6z M123.3,125.6c1.9-0.6,3.2-2.5,3-4.5c0.1-1.3-0.3-2.5-1.2-3.4
			c-0.9-1-1.9-1.2-4.2-1.2H119v9.4h1.7C121.5,125.8,122.4,125.8,123.3,125.6L123.3,125.6z M138.3,124.9V124h-4v-2.1h3.1V120h-3.1
			v-1.7h3.7v-1.9h-5.8v9.4h6L138.3,124.9z M146.5,124.1v-1.7l0.5,0.1c0.5,0,0.7,0.4,1.4,1.7l0.9,1.6h1.2c0.4,0,0.8,0,1.2-0.1
			c-0.3-0.6-0.6-1.2-0.9-1.8c-0.3-0.6-0.7-1.1-0.9-1.8c0.2-0.3,0.4-0.5,0.7-0.7c0.5-0.4,0.8-1.1,0.8-1.8c0.2-2.5-1-3.3-4.7-3.3h-2.4
			v9.4h2.3L146.5,124.1z M106.6,118.2c0.4-0.3,0.6-0.8,0.4-1.3c-0.2-0.4-0.6-0.6-1.1-0.4c-0.5,0-0.9,0.4-0.9,0.9
			c0,0.1,0,0.3,0.1,0.4c0.1,0.5,0.3,0.6,1,0.8C106.3,118.5,106.5,118.3,106.6,118.2L106.6,118.2z M113.8,118.1
			c0.5-0.5,0.5-0.7,0.2-1.3c-0.4-0.5-1.1-0.5-1.6-0.1c-0.4,0.5-0.3,1.2,0.1,1.6C112.8,118.6,113.4,118.6,113.8,118.1
			C113.7,118.2,113.7,118.1,113.8,118.1L113.8,118.1z M95.8,112.6c-0.1-0.7,0.1-1.4,0.5-2l0.5-0.6l1.1,2l1.1,2h1.2
			c1.1,0,1.2,0,1-0.4c-0.1-0.2-0.9-1.5-1.7-2.9l-1.5-2.5l0.6-0.9c0.3-0.5,1-1.3,1.4-1.8l0.8-1h-2.5l-1.3,1.8l-1.3,1.8v-3.6h-2.3v9.4
			h2.3L95.8,112.6z M106.3,112.9l0.3-1.1l1.4-0.1l1.4-0.1l0.3,1.1c0.1,0.6,0.4,1.1,0.5,1.2c0.4,0.1,0.8,0.1,1.2,0l0.9-0.1l-0.9-2.9
			c-0.5-1.6-1.2-3.7-1.5-4.6l-0.5-1.7h-2.6l-0.4,1.3c-0.2,0.7-0.9,2.7-1.4,4.4c-0.5,1.7-1,3.2-1.1,3.4c-0.1,0.2,0.2,0.3,1,0.3h1.1
			L106.3,112.9z M118.1,109.3v-4.7h-2.3v9.4h2.3V109.3z M127.9,113.6c1-0.5,1.6-1.6,1.5-2.8c0-0.5-0.2-0.9-0.4-1.3
			c-0.6-0.5-1.3-0.8-2-1.1c-1.8-0.9-2.2-1.3-1.6-1.8c0.6-0.4,1.5-0.4,2.1,0.1c0.7,0.3,0.7,0.3,1.2-0.3c0.2-0.2,0.4-0.5,0.5-0.8
			c0-0.1-0.4-0.4-0.9-0.7c-2.4-1.3-5.3,0-5.3,2.3c0,1.3,0.5,1.9,2.5,2.8c1.5,0.7,1.8,0.9,1.8,1.3c0,0.9-1.3,1-2.6,0.4l-0.8-0.4
			l-0.6,0.6c-0.3,0.2-0.5,0.5-0.6,0.8c0,0.2,0.5,0.5,1.1,0.8C125,114.1,126.5,114.1,127.9,113.6L127.9,113.6z M139.8,113v-0.9h-4
			V110h3.1v-1.9h-3.1v-1.7h3.7v-1.9h-5.8v9.4h6L139.8,113z M146.5,112.3v-1.7h0.6c0.5,0,0.7,0.2,1.4,1.6l0.8,1.6l1.2,0.1
			c0.4,0.1,0.8,0,1.2-0.1c-0.3-0.6-0.6-1.3-1-1.9l-1-1.8l0.5-0.4c0.8-0.7,1.1-1.7,0.9-2.7c-0.2-2-1.2-2.5-4.5-2.5h-2.3v9.4h2.1
			L146.5,112.3z"/>
		<path id="p13mLBXsf0" class="st0" d="M95.8,122.9v-1.3l1.1,0.1c1.3,0.2,1.6,0.4,1.6,1.2c0,0.5-0.1,0.7-0.7,0.9
			c-0.4,0.2-0.9,0.3-1.4,0.3h-0.6V122.9z"/>
		<path id="pPnMVSvJk" class="st0" d="M95.8,119.2c0-1,0-1,0.6-1c1,0,1.5,0.2,1.6,0.8c0.2,0.7-0.5,1.3-1.5,1.3h-0.7V119.2z"/>
		<path id="pSW2ciOEH" class="st0" d="M108.7,121.4c0.1-0.3,0.3-1.1,0.5-1.8l0.3-1.3l0.4,1.8l0.4,1.8h-0.9
			C108.6,121.9,108.5,121.9,108.7,121.4z"/>
		<path id="pEEAf7PCX" class="st0" d="M121.1,121.1v-2.8h0.6c1.6,0,2.4,1.1,2.3,3.1c-0.1,1.1-0.2,1.4-0.8,1.9
			c-0.4,0.4-0.9,0.6-1.4,0.6h-0.7V121.1z"/>
		<path id="p44PYuaZe" class="st0" d="M146.5,119.4c0-1.2,0-1.3,0.5-1.3c0.7,0,1.5,0.2,2.1,0.7c0.6,0.9-0.2,1.8-1.6,1.8h-0.9V119.4z
			"/>
		<path id="pxVcBh7ub" class="st0" d="M107.1,109.9c0-0.2,0.8-3.4,0.9-3.4c0.2,0.5,0.4,1.1,0.5,1.7l0.4,1.8H108
			C107.7,110,107.4,110,107.1,109.9z"/>
		<path id="p13aZmw2P5" class="st0" d="M146.5,107.5v-1.3l1.1,0.1c2.3,0.2,2.2,2.5-0.1,2.5h-0.9V107.5z"/>
		<path id="p1DsSF2Kxb" class="st0" d="M158.7,131.5l-1-0.1v-30.8h11v5.1l-1.9,0.2c-0.7,0-1.4,0.1-2.1,0.4c-0.1,0.1-0.2,4.3-0.2,9.3
			v9.1l1.1,0.1c0.6,0.1,1.9,0.1,2.9,0.1h1.8v6.7l-5.4,0C162.1,131.6,159.3,131.6,158.7,131.5z"/>
		<path id="p5NSFDaPY" class="st0" d="M74.4,127.7V125h1.5c0.8,0,2.1-0.1,2.9-0.1l1.4-0.1v-8.1c0-4.4-0.1-8.6-0.1-9.3l-0.1-1.3
			l-1.9-0.1l-2-0.1v-5.2h11v29.2h-1c-1.5,0-9.4,0.4-10.6,0.5l-1.1,0.1V127.7z"/>
		<path id="pKYPX6Kup" class="st0" d="M76.1,97.2c0-1.8,0-2,0.4-2.1c0.2-0.1,10.7-2.8,23.2-6l22.7-5.9l22.8,5.9
			c12.6,3.2,23,6,23.2,6c0.3,0.1,0.4,0.4,0.4,2.1v2H76.1V97.2z"/>
	</g>
</g>
</svg>
